<?xml version="1.0" encoding="UTF-8"?><svg id="Calque_1" xmlns="http://www.w3.org/2000/svg" xmlns:xlink="http://www.w3.org/1999/xlink" viewBox="0 0 191.44 207.07"><defs><clipPath id="clippath"><circle cx="95.72" cy="103.53" r="92.34" transform="translate(-45.17 98.01) rotate(-45)" fill="none" stroke-width="0"/></clipPath></defs><circle cx="95.72" cy="103.53" r="92.34" transform="translate(-45.17 98.01) rotate(-45)" fill="#c9dab3" stroke-width="0"/><g clip-path="url(#clippath)"><path d="M112.96,73.68c-11.38-.2-23.1-.2-34.48,0-5.84,9.79-11.66,19.93-17.16,29.86,5.5,9.93,11.32,20.06,17.16,29.86,11.38.2,23.1.2,34.48,0,5.84-9.79,11.66-19.93,17.16-29.86-5.5-9.93-11.32-20.06-17.16-29.86Z" fill="#631712" stroke-width="0"/><path d="M112.96,133.39c-11.38.2-23.1.2-34.48,0-5.54,9.6-10.77,18.66-15.46,26.77,5.82,8.8,11.68,16.88,17.24,23.69,10.23.39,20.69.39,30.91,0,5.56-6.81,11.42-14.89,17.24-23.69-4.68-8.11-9.91-17.17-15.46-26.77Z" fill="none" stroke="#631712" stroke-miterlimit="10"/><path d="M188,126.37c-3.27,1.37-8.91,2.54-16.23,3.51-4.13,9.11-8.94,18.38-14.22,27.2,3.46,7.46,6.28,13.99,8.63,19.68,7.5-1.97,13.87-4.33,18.64-7.09,3.19-8.14,5.25-16.7,6.11-24.92-.75-5.47-1.55-11.52-2.93-18.4Z" fill="none" stroke="#631712" stroke-miterlimit="10"/><path d="M19.67,129.88c-7.33-.98-12.96-2.15-16.23-3.51-1.38,6.87-2.18,12.92-2.93,18.4.85,8.21,2.92,16.78,6.11,24.92,4.77,2.76,11.14,5.12,18.64,7.09,2.35-5.69,5.18-12.22,8.63-19.68-5.28-8.82-10.09-18.1-14.22-27.2Z" fill="none" stroke="#631712" stroke-miterlimit="10"/><path d="M188,80.7c-3.27-1.37-8.91-2.54-16.23-3.51-3.19,8.13-7.04,17.02-11.49,26.35,4.45,9.32,8.29,18.22,11.49,26.35,7.33-.98,12.96-2.15,16.23-3.51,1.91-8.23,2.87-15.96,3.09-22.84-.22-6.88-1.18-14.6-3.09-22.84Z" fill="#631712" stroke-width="0"/><path d="M19.67,77.19c-7.33.98-12.96,2.15-16.23,3.51-1.91,8.23-2.87,15.96-3.09,22.84.22,6.88,1.18,14.6,3.09,22.84,3.27,1.37,8.91,2.54,16.23,3.51,3.19-8.13,7.04-17.02,11.49-26.35-4.45-9.32-8.29-18.22-11.49-26.35Z" fill="#631712" stroke-width="0"/><path d="M184.82,37.39c-4.77-2.76-11.14-5.12-18.64-7.09-2.35,5.69-5.18,12.22-8.63,19.68,5.28,8.82,10.09,18.1,14.22,27.2,7.33.98,12.96,2.15,16.23,3.51,1.38-6.87,2.18-12.92,2.93-18.4-.85-8.21-2.92-16.78-6.11-24.92Z" fill="none" stroke="#631712" stroke-miterlimit="10"/><path d="M25.25,30.3c-7.5,1.97-13.87,4.33-18.64,7.09C3.43,45.53,1.36,54.09.5,62.3c.75,5.47,1.55,11.52,2.93,18.4,3.27-1.37,8.91-2.54,16.23-3.51,4.13-9.11,8.94-18.38,14.22-27.2-3.46-7.46-6.28-13.99-8.63-19.68Z" fill="none" stroke="#631712" stroke-miterlimit="10"/><path d="M111.18,183.85c-10.23.39-20.69.39-30.91,0-4.67,6.42-8.77,11.56-12.15,15.3,5.65,4.35,11,6.96,15.71,7.4,7.93.02,15.86.02,23.79,0,4.7-.45,10.06-3.05,15.71-7.4-3.38-3.74-7.47-8.88-12.15-15.3Z" fill="none" stroke="#631712" stroke-miterlimit="10"/><path d="M111.18,23.22c-10.23-.39-20.69-.39-30.91,0-5.56,6.81-11.42,14.88-17.24,23.69,4.68,8.11,9.91,17.17,15.46,26.77,11.38-.2,23.1-.2,34.48,0,5.54-9.6,10.77-18.66,15.46-26.77-5.82-8.8-11.68-16.88-17.24-23.69Z" fill="none" stroke="#631712" stroke-miterlimit="10"/><path d="M107.61.51c-7.93-.02-15.86-.02-23.79,0-4.7.45-10.06,3.05-15.71,7.4,3.38,3.74,7.47,8.88,12.15,15.3,10.23-.39,20.69-.39,30.91,0,4.67-6.42,8.77-11.56,12.15-15.3-5.65-4.35-11-6.96-15.71-7.4Z" fill="none" stroke="#631712" stroke-miterlimit="10"/><path d="M63.03,46.9c-10.5.68-20.41,1.71-29.14,3.08-5.28,8.82-10.09,18.1-14.22,27.2,3.19,8.13,7.04,17.02,11.49,26.35,8.89,0,19.18,0,30.17,0,5.5-9.93,11.32-20.06,17.16-29.86-5.54-9.6-10.77-18.66-15.46-26.77Z" fill="none" stroke="#631712" stroke-miterlimit="10"/><path d="M68.12,7.92c-9.03.6-17.79,1.51-26.04,2.71-5.94,5.19-11.68,12-16.83,19.67,2.35,5.69,5.18,12.22,8.63,19.68,8.73-1.37,18.64-2.4,29.14-3.08,5.82-8.8,11.68-16.88,17.24-23.69-4.67-6.42-8.77-11.56-12.15-15.3Z" fill="#631712" stroke-width="0"/><path d="M157.55,49.98c-8.73-1.37-18.64-2.4-29.14-3.08-4.68,8.11-9.91,17.17-15.46,26.77,5.84,9.79,11.66,19.93,17.16,29.86,11,0,21.29,0,30.17,0,4.45-9.32,8.29-18.22,11.49-26.35-4.13-9.11-8.94-18.38-14.22-27.2Z" fill="none" stroke="#631712" stroke-miterlimit="10"/><path d="M61.33,103.53c-11,0-21.29,0-30.17,0-4.45,9.32-8.29,18.22-11.49,26.35,4.13,9.11,8.94,18.38,14.22,27.2,8.73,1.37,18.64,2.4,29.14,3.08,4.68-8.11,9.91-17.17,15.46-26.77-5.84-9.79-11.66-19.93-17.16-29.86Z" fill="none" stroke="#631712" stroke-miterlimit="10"/><path d="M160.28,103.53c-8.89,0-19.18,0-30.17,0-5.5,9.93-11.32,20.06-17.16,29.86,5.54,9.6,10.77,18.66,15.46,26.77,10.5-.68,20.41-1.71,29.14-3.08,5.28-8.82,10.09-18.1,14.22-27.2-3.19-8.13-7.04-17.02-11.49-26.35Z" fill="none" stroke="#631712" stroke-miterlimit="10"/><path d="M63.03,160.16c-10.5-.68-20.41-1.71-29.14-3.08-3.46,7.46-6.28,13.99-8.63,19.68,5.15,7.67,10.88,14.48,16.83,19.67,8.24,1.21,17.01,2.11,26.04,2.71,3.38-3.74,7.47-8.88,12.15-15.3-5.56-6.81-11.42-14.88-17.24-23.69Z" fill="#631712" stroke-width="0"/><path d="M157.55,157.08c-8.73,1.37-18.64,2.4-29.14,3.08-5.82,8.8-11.68,16.88-17.24,23.69,4.67,6.42,8.77,11.56,12.15,15.3,9.03-.6,17.79-1.51,26.04-2.71,5.94-5.19,11.68-12,16.83-19.67-2.35-5.69-5.18-12.22-8.63-19.68Z" fill="#631712" stroke-width="0"/><path d="M149.35,10.63c-8.24-1.21-17.01-2.11-26.04-2.71-3.38,3.74-7.47,8.88-12.15,15.3,5.56,6.81,11.42,14.88,17.24,23.69,10.5.68,20.41,1.71,29.14,3.08,3.46-7.46,6.28-13.99,8.63-19.68-5.15-7.67-10.88-14.48-16.83-19.67Z" fill="#631712" stroke-width="0"/></g></svg>