<svg width="62" height="90" viewBox="0 0 62 90" fill="none" xmlns="http://www.w3.org/2000/svg">
<g clip-path="url(#clip0_1844_819)">
<path d="M40.011 57.8438C39.4283 57.8438 38.8574 57.5864 38.4748 57.0893C37.8215 56.2471 37.9804 55.0364 38.828 54.393C54.3486 42.5435 57.5268 28.723 58.033 21.5408C58.6275 13.1947 56.2438 7.59749 54.0248 5.34573C53.5599 4.87783 51.9766 3.38641 50.9996 4.01222C50.0285 4.63219 49.487 6.86055 50.2462 8.80817C55.0078 21.032 50.9466 29.6764 50.7759 30.039C50.311 30.9982 49.1574 31.4018 48.1921 30.9397C47.2327 30.4835 46.8266 29.3372 47.2798 28.378C47.4329 28.0504 50.7524 20.7629 46.6324 10.1943C45.2375 6.6149 46.2381 2.47986 48.8984 0.777885C50.0108 0.0643423 53.0125 -1.18143 56.7911 2.65532C60.5109 6.43359 62.4649 13.7737 61.894 21.8157C61.3349 29.6471 57.9035 44.6842 41.1822 57.4461C40.8291 57.7151 40.4171 57.8438 40.0051 57.8438H40.011Z" fill="white"/>
<path d="M21.9893 57.8439C21.5773 57.8439 21.1653 57.7153 20.8122 57.4462C4.08501 44.6843 0.653648 29.6414 0.100392 21.81C-0.470521 13.7739 1.48353 6.4279 5.19741 2.65548C8.97603 -1.18128 11.9777 0.0644949 13.0901 0.778038C15.7564 2.48586 16.751 6.6209 15.3561 10.1945C11.1949 20.8801 14.6734 28.2962 14.7087 28.3723C15.1737 29.3315 14.7676 30.4778 13.8023 30.9399C12.8371 31.4019 11.6835 30.9983 11.2185 30.0392C11.0419 29.6765 6.98666 21.0263 11.7482 8.80832C12.5075 6.86655 11.966 4.63234 10.9948 4.01238C10.0178 3.38656 8.42866 4.87799 7.96958 5.34588C5.75067 7.59764 3.36696 13.1949 3.96141 21.541C4.47347 28.7232 7.64586 42.5495 23.1723 54.3932C24.0199 55.0424 24.1788 56.2472 23.5255 57.0895C23.1429 57.5807 22.572 57.8439 21.9893 57.8439Z" fill="white"/>
<path d="M30.8586 9.14154C22.5715 9.14154 18.4456 10.013 16.5033 10.6856C15.8971 10.8962 15.7205 11.674 16.1973 12.101C16.9565 12.7794 17.0625 13.6626 17.0625 13.6626H44.6664C44.6664 13.6626 44.7665 12.7794 45.5316 12.101C46.0084 11.674 45.8259 10.8962 45.2256 10.6856C43.2774 10.013 39.1574 9.14154 30.8703 9.14154H30.8586Z" fill="white"/>
<path d="M25.026 60.6512C23.8901 60.6512 22.8365 60.0663 22.2303 59.1129C8.29882 37.2154 9.45242 22.9153 10.8885 19.2072C12.3541 15.4114 17.0567 13.6626 17.0567 13.6626L18.7989 13.376C26.7858 12.0659 34.9375 12.0659 42.9244 13.376L44.6666 13.6626C44.6666 13.6626 49.3634 15.4114 50.8348 19.2072C52.2709 22.9153 53.4245 37.2154 39.493 59.1129C38.8868 60.0663 37.8333 60.6512 36.6973 60.6512H25.0319H25.026Z" fill="white"/>
<path d="M43.6132 77.5013C43.6132 75.9748 42.5655 75.6999 40.3231 74.6939C38.4691 73.8576 37.9335 73.3955 36.5209 71.8748C32.4185 67.4532 36.6092 60.657 36.6092 60.657H25.1026C25.1026 60.657 29.2932 67.4591 25.1909 71.8748C23.7783 73.3955 23.2486 73.8576 21.3887 74.6939C19.1404 75.7058 18.0986 75.9748 18.0986 77.5013H43.6132Z" fill="white"/>
<path d="M30.8588 65.7688C32.1889 65.7688 33.5014 65.8331 34.7904 65.9384C35.1259 63.055 36.6091 60.6453 36.6091 60.6453H25.1025C25.1025 60.6453 26.5857 63.055 26.9212 65.9384C28.2102 65.8273 29.5227 65.7688 30.8529 65.7688H30.8588Z" fill="white"/>
<path d="M45.7791 81.4667H15.9386C14.838 81.4667 13.9434 80.5719 13.9434 79.484C13.9434 78.3903 14.8439 77.5013 15.9386 77.5013H45.7732C46.8739 77.5013 47.7685 78.3961 47.7685 79.484C47.7685 80.5777 46.868 81.4667 45.7732 81.4667H45.7791Z" fill="white"/>
<path d="M47.8862 80.0806H13.8256C12.9934 80.0806 12.3188 80.7509 12.3188 81.5778V88.5027C12.3188 89.3296 12.9934 90 13.8256 90H47.8862C48.7183 90 49.3929 89.3296 49.3929 88.5027V81.5778C49.3929 80.7509 48.7183 80.0806 47.8862 80.0806Z" fill="#631712"/>
<path d="M47.8861 80.0806H45.7967V85.3444C45.7967 86.0813 45.1905 86.6896 44.443 86.6896H17.2746C16.533 86.6896 15.9209 86.0872 15.9209 85.3444V80.0806H13.8314C13.0016 80.0806 12.3247 80.7532 12.3247 81.5778V88.5027C12.3247 89.3274 13.0016 90 13.8314 90H47.892C48.7219 90 49.3988 89.3274 49.3988 88.5027V81.5778C49.3988 80.7532 48.7219 80.0806 47.892 80.0806H47.8861Z" fill="white"/>
<path d="M21.6654 25.1202C22.5895 30.811 22.254 39.1864 20.2293 39.5081C18.2046 39.8298 15.2441 31.9866 14.3259 26.2958C13.4019 20.605 14.8674 19.2189 16.8921 18.8972C18.9168 18.5755 20.7472 19.4294 21.6654 25.1261V25.1202Z" fill="white"/>
</g>
<defs>
<clipPath id="clip0_1844_819">
<rect width="62" height="90" fill="white"/>
</clipPath>
</defs>
</svg>
