<svg width="77" height="85" viewBox="0 0 77 85" fill="none" xmlns="http://www.w3.org/2000/svg">
<g clip-path="url(#clip0_1844_848)">
<path d="M1.98664 0C0.893016 0 0 0.896995 0 1.99549V83.011C0 84.1095 0.893016 85.0065 1.98664 85.0065C3.08026 85.0065 3.97327 84.1095 3.97327 83.011V1.99549C3.97327 0.896995 3.08026 0 1.98664 0Z" fill="#631712"/>
<path d="M1.98667 0C1.62428 0 1.28778 0.103999 0.996582 0.279498C1.58546 0.623996 1.98667 1.26099 1.98667 1.99549V83.011C1.98667 83.7455 1.58546 84.3825 0.996582 84.727C1.28778 84.9025 1.62428 85.0065 1.98667 85.0065C3.08029 85.0065 3.9733 84.1095 3.9733 83.011V1.99549C3.9733 0.896995 3.08029 0 1.98667 0Z" fill="#E0311C"/>
<path d="M0 19.9614H36.0895L42.4053 6.11646H0V19.9614Z" fill="white"/>
<path d="M36.0896 19.9614H69.623L77.0001 6.11646H42.4054L36.0896 19.9614Z" fill="#E0311C"/>
<path d="M0 33.8063H29.7996L36.1219 19.9614H0V33.8063Z" fill="#E0311C"/>
<path d="M62.2458 33.8063L69.6229 19.9614H36.1219L29.7996 33.8063H62.2458Z" fill="white"/>
</g>
<defs>
<clipPath id="clip0_1844_848">
<rect width="77" height="85" fill="white"/>
</clipPath>
</defs>
</svg>
