<?xml version="1.0" encoding="UTF-8"?><svg id="Calque_1" xmlns="http://www.w3.org/2000/svg" viewBox="0 0 249.49 126.96"><path d="M208.86,9.93c-12.12,7.94-15.51,24.21-7.57,36.34,7.94,12.12,24.21,15.51,36.34,7.57,12.12-7.94,15.51-24.21,7.57-36.34-7.94-12.12-24.21-15.51-36.34-7.57ZM232,45.26c-7.39,4.84-17.3,2.78-22.14-4.61-4.84-7.39-2.78-17.3,4.61-22.14,7.39-4.84,17.3-2.78,22.14,4.61,4.84,7.39,2.78,17.3-4.61,22.14Z" fill="#fff" stroke-width="0"/><path d="M227.07,57.82c.32-3.58.34-7.07.06-10.44-6.42,1.61-13.43-.89-17.26-6.74-4.84-7.39-2.78-17.3,4.61-22.14.37-.24.76-.46,1.14-.67-2.16-2.76-4.58-5.29-7.21-7.58-11.75,8.05-14.96,24.04-7.12,36.01,5.79,8.83,15.98,13,25.78,11.56Z" fill="#fff" stroke-width="0"/><path d="M0,95.47l20.63,31.48s47.15-25.58,95.48-11.01c41.77,12.59,93.25-2.88,101.61-48.02C225.88,23.79,186.94-8.02,147.1,1.78,105.73,11.96,0,95.47,0,95.47Z" fill="#e1301f" stroke-width="0"/><path d="M116.31,109.38c-48.13-15.25-90.52,6.5-90.52,6.5L0,95.47l20.63,31.48s47.15-25.58,95.48-11.01c30.25,9.12,65.59,3.51,85.96-17.43-19.28,18.78-52.41,21.43-85.76,10.87Z" fill="#d74b3b" stroke-width="0"/><circle cx="158.89" cy="58.55" r="50.83" transform="translate(69.57 202.41) rotate(-78.39)" fill="#fff" stroke-width="0"/><circle cx="158.89" cy="58.55" r="38.56" transform="translate(68.78 201.92) rotate(-78.08)" fill="#e1301f" stroke-width="0"/><path d="M97.3,26.37c-9.35,5.78-18.97,12.12-28.37,18.53l7.42,11.32,31.26-14.12-10.31-15.73Z" fill="#631712" stroke-width="0"/><path d="M97.3,26.37c-.72.45-1.46.92-2.19,1.38l8.41,12.83-26.72,12.31-6.04-9.22c-.61.41-1.22.82-1.83,1.24l7.42,11.32,31.26-14.12-10.31-15.73Z" fill="#681f17" stroke-width="0"/></svg>