<?xml version="1.0" encoding="UTF-8"?><svg id="Calque_1" xmlns="http://www.w3.org/2000/svg" viewBox="0 0 156.68 232.69"><path d="M78.34,103.85h0c-4.68,0-8.51-3.83-8.51-8.51v-38.66c0-4.68,3.83-8.51,8.51-8.51h0c4.68,0,8.51,3.83,8.51,8.51v38.66c0,4.68-3.83,8.51-8.51,8.51Z" fill="#631712" stroke-width="0"/><path d="M78.34,71.57c-2.88,0-5.71.17-8.51.47v23.3c0,4.68,3.83,8.51,8.51,8.51s8.51-3.83,8.51-8.51v-23.3c-2.8-.3-5.63-.47-8.51-.47Z" fill="#631712" stroke-width="0"/><path d="M69.83,56.67v9.25h17.02v-9.25c0-2.2-.87-4.19-2.25-5.71h-12.52c-1.38,1.51-2.25,3.51-2.25,5.71Z" fill="#631712" stroke-width="0"/><path d="M115.24,98.5h0c-1.82-1.52-2.07-4.26-.54-6.08l16.48-19.71c1.52-1.82,4.26-2.07,6.09-.54h0c1.82,1.52,2.07,4.26.54,6.08l-16.48,19.71c-1.52,1.82-4.26,2.07-6.09.54Z" fill="#631712" stroke-width="0"/><path d="M132.61,85.08l-7.23-6.05c-1.6-1.34-1.82-3.75-.48-5.35h0c1.34-1.6,3.75-1.82,5.35-.48l7.23,6.05c1.6,1.34,1.82,3.75.48,5.35h0c-1.34,1.6-3.75,1.82-5.35.48Z" fill="#c9dab3" stroke-width="0"/><path d="M44.42,98.5h0c1.82-1.52,2.07-4.26.54-6.08l-16.48-19.71c-1.52-1.82-4.26-2.07-6.09-.54h0c-1.82,1.52-2.07,4.26-.54,6.08l16.48,19.71c1.52,1.82,4.26,2.07,6.09.54Z" fill="#631712" stroke-width="0"/><path d="M25.07,85.59l10.06-8.4c2.78-2.32,3.15-6.49.83-9.26h0c-2.32-2.77-6.48-3.14-9.26-.83l-10.06,8.4c-2.78,2.32-3.15,6.49-.83,9.26h0c2.32,2.77,6.48,3.14,9.26.83Z" fill="#c9dab3" stroke-width="0"/><circle cx="78.34" cy="154.35" r="78.34" fill="#631712" stroke-width="0"/><circle cx="78.34" cy="154.35" r="68.64" fill="#e1301f" stroke-width="0"/><circle cx="78.34" cy="154.35" r="62.89" fill="#fff" stroke-width="0"/><path d="M78.4,211.86h-.06c-1.21,0-2.42-.04-3.61-.11l.62-10.17c.99.06,1.99.09,2.99.09l.06,10.19ZM87.57,211.13l-1.62-10.06c1-.16,1.99-.35,2.97-.58l2.28,9.93c-1.19.27-2.41.51-3.62.71ZM65.62,210.45c-1.19-.27-2.39-.58-3.57-.93l2.88-9.78c.96.28,1.94.54,2.93.76l-2.24,9.94ZM99.97,207.66l-3.83-9.44c.94-.38,1.86-.79,2.76-1.23l4.44,9.17c-1.1.53-2.23,1.04-3.37,1.5ZM53.45,206.21c-1.09-.52-2.19-1.1-3.27-1.71l4.99-8.88c.88.49,1.78.96,2.69,1.4l-4.41,9.19ZM111.27,201.51l-5.84-8.35c.83-.58,1.64-1.19,2.43-1.82l6.36,7.96c-.96.77-1.96,1.51-2.95,2.21ZM42.54,199.36c-.95-.76-1.9-1.56-2.81-2.38l6.84-7.55c.75.68,1.52,1.34,2.31,1.97l-6.35,7.97ZM120.93,193l-7.55-6.85c.68-.75,1.34-1.52,1.97-2.31l7.96,6.36c-.76.95-1.56,1.89-2.39,2.8ZM33.43,190.28c-.76-.96-1.51-1.95-2.21-2.95l8.35-5.85c.58.83,1.19,1.64,1.82,2.42l-7.95,6.37ZM128.47,182.57l-8.87-5.01c.5-.88.96-1.77,1.4-2.69l9.18,4.42c-.53,1.11-1.11,2.21-1.71,3.27ZM26.55,179.4c-.53-1.1-1.04-2.23-1.5-3.37l9.44-3.84c.38.94.79,1.86,1.23,2.76l-9.17,4.45ZM133.5,170.7l-9.77-2.89c.29-.97.54-1.94.77-2.93l9.94,2.26c-.27,1.19-.58,2.39-.93,3.57ZM22.28,167.25c-.27-1.19-.51-2.41-.71-3.61l10.06-1.64c.16,1,.36,2,.58,2.98l-9.93,2.28ZM135.74,158.02l-10.17-.65c.06-1,.1-2.01.1-3.03v-.23s10.19,0,10.19,0v.17c0,1.28-.04,2.52-.12,3.73ZM22.56,154.44h-1.73c0-1.29.04-2.47.11-3.65l10.17.62c-.06.97-.09,1.95-.09,2.93l-8.46.09ZM125.04,146.59c-.17-1-.36-2-.59-2.98l9.93-2.3c.28,1.19.52,2.41.72,3.61l-10.05,1.66ZM32.17,143.91l-9.94-2.23c.27-1.2.58-2.4.93-3.57l9.78,2.88c-.28.96-.54,1.94-.76,2.93ZM122.15,136.41c-.38-.94-.8-1.86-1.24-2.76l9.16-4.46c.54,1.1,1.04,2.23,1.5,3.36l-9.43,3.87ZM35.64,133.91l-9.19-4.41c.53-1.1,1.1-2.21,1.7-3.27l8.89,4.99c-.49.88-.96,1.78-1.4,2.69ZM117.06,127.13c-.58-.83-1.19-1.64-1.82-2.42l7.94-6.39c.76.95,1.51,1.94,2.21,2.94l-8.33,5.87ZM41.26,124.93l-7.98-6.34c.76-.95,1.56-1.9,2.38-2.81l7.56,6.83c-.68.75-1.34,1.52-1.97,2.32ZM110.03,119.19c-.75-.68-1.52-1.33-2.32-1.96l6.33-7.98c.97.77,1.91,1.57,2.81,2.38l-6.83,7.56ZM48.74,117.42l-6.38-7.95c.96-.77,1.95-1.52,2.94-2.21l5.86,8.34c-.83.58-1.64,1.19-2.42,1.82ZM101.42,113.02c-.88-.49-1.78-.96-2.7-1.39l4.39-9.19c1.1.53,2.2,1.1,3.27,1.7l-4.97,8.89ZM57.68,111.75l-4.45-9.16c1.1-.53,2.23-1.04,3.36-1.5l3.86,9.43c-.94.38-1.86.8-2.76,1.24ZM91.66,108.92c-.97-.28-1.95-.53-2.94-.76l2.22-9.94c1.18.27,2.38.57,3.56.92l-2.85,9.78ZM67.66,108.23l-2.29-9.93c1.2-.28,2.42-.52,3.62-.71l1.64,10.06c-1,.16-1.99.36-2.97.58ZM81.23,107.1c-.95-.06-1.92-.09-2.89-.09l-.17-10.19h.17c1.17,0,2.34.03,3.49.1l-.61,10.17Z" fill="#e1301f" stroke-width="0"/><path d="M78.34,0c-16.52,0-29.92,13.4-29.92,29.92s13.4,29.92,29.92,29.92,29.92-13.4,29.92-29.92S94.86,0,78.34,0ZM78.34,54.57c-13.61,0-24.65-11.04-24.65-24.65s11.04-24.65,24.65-24.65,24.65,11.04,24.65,24.65-11.04,24.65-24.65,24.65Z" fill="#631712" stroke-width="0"/><path d="M87.62,61.62h-18.56c-4.11,0-7.48-3.37-7.48-7.48h0c0-4.11,3.37-7.48,7.48-7.48h18.56c4.11,0,7.48,3.37,7.48,7.48h0c0,4.11-3.37,7.48-7.48,7.48Z" fill="#c9dab3" stroke-width="0"/><circle cx="78.34" cy="154.35" r="15.72" fill="#c9dab3" stroke-width="0"/><polygon points="78.34 116.69 70.98 154.35 85.71 154.35 78.34 116.69" fill="#c9dab3" stroke-width="0"/><polygon points="78.34 178.88 85.71 154.35 70.98 154.35 78.34 178.88" fill="#c9dab3" stroke-width="0"/><path d="M85.71,154.35c0,4.07-3.3,7.37-7.37,7.37s-7.37-3.3-7.37-7.37,3.3-7.37,7.37-7.37,7.37,3.3,7.37,7.37Z" fill="#e1301f" stroke-width="0"/></svg>